<svg id="Group_44041" data-name="Group 44041" xmlns="http://www.w3.org/2000/svg" xmlns:xlink="http://www.w3.org/1999/xlink" width="36" height="36" viewBox="0 0 36 36">
  <defs>
    <linearGradient id="linear-gradient" x1="0.5" x2="0.5" y2="1" gradientUnits="objectBoundingBox">
      <stop offset="0" stop-color="#50b83c"/>
      <stop offset="1" stop-color="#01a38a"/>
    </linearGradient>
    <filter id="Path_33774" x="8.94" y="5.62" width="19.92" height="28.38" filterUnits="userSpaceOnUse">
      <feOffset dy="1" input="SourceAlpha"/>
      <feGaussianBlur stdDeviation="0.5" result="blur"/>
      <feFlood flood-opacity="0.161"/>
      <feComposite operator="in" in2="blur"/>
      <feComposite in="SourceGraphic"/>
    </filter>
  </defs>
  <g id="Group_30220" data-name="Group 30220">
    <path id="App_Icon_Mask-2" data-name="App Icon Mask-2" d="M1196.6,2409.259c0-.432,0-.86,0-1.29,0-.36-.007-.724-.016-1.086a15.847,15.847,0,0,0-.208-2.364,7.975,7.975,0,0,0-.741-2.249,7.563,7.563,0,0,0-3.306-3.306,7.984,7.984,0,0,0-2.247-.74,15.866,15.866,0,0,0-2.365-.208c-.363-.01-.724-.014-1.087-.016-.429,0-.859,0-1.29,0h-13.477c-.43,0-.86,0-1.29,0-.363,0-.725.007-1.086.016a15.859,15.859,0,0,0-2.365.208,7.98,7.98,0,0,0-2.247.74,7.559,7.559,0,0,0-3.306,3.306,7.95,7.95,0,0,0-.741,2.248,15.778,15.778,0,0,0-.208,2.365q-.014.543-.016,1.087c0,.43,0,.859,0,1.29v13.477c0,.43,0,.859,0,1.29q0,.543.016,1.086a15.784,15.784,0,0,0,.208,2.365,7.96,7.96,0,0,0,.741,2.249,7.568,7.568,0,0,0,3.306,3.3,7.957,7.957,0,0,0,2.247.74,15.73,15.73,0,0,0,2.365.208c.36.01.724.014,1.086.016.43,0,.86,0,1.29,0h13.477c.43,0,.86,0,1.29,0,.362,0,.724-.006,1.086-.016a15.737,15.737,0,0,0,2.365-.208,7.963,7.963,0,0,0,2.247-.74,7.572,7.572,0,0,0,3.306-3.3,7.984,7.984,0,0,0,.741-2.249,15.854,15.854,0,0,0,.208-2.365c.01-.362.014-.724.016-1.086,0-.43,0-.86,0-1.29Z" transform="translate(-1160.603 -2397.997)" fill="url(#linear-gradient)"/>
  </g>
  <g id="Group_30221" data-name="Group 30221" transform="translate(10.44 6.12)">
    <g transform="matrix(1, 0, 0, 1, -10.44, -6.12)" filter="url(#Path_33774)">
      <path id="Path_33774-2" data-name="Path 33774" d="M1353.46,2430a8.476,8.476,0,0,0-8.436,7.99c-.009.156-.024.311-.024.47v16.919h1.745a3.9,3.9,0,0,0,3.9-3.9v-5.057h0v-7.968a2.818,2.818,0,1,1,1.559,2.523v5.84a8.286,8.286,0,0,0,1.069.095l.192,0,.218,0,.217-.008c.072,0,.144-.008.216-.014a8.461,8.461,0,0,0,7.784-7.784c.006-.072.01-.144.014-.216s.006-.145.008-.217,0-.145,0-.218A8.46,8.46,0,0,0,1353.46,2430Z" transform="translate(-1334.56 -2423.88)" fill="#fff"/>
    </g>
    <path id="Path_33775" data-name="Path 33775" d="M1369.079,2453.5a2.82,2.82,0,0,1-4.081,2.523v5.84a8.284,8.284,0,0,0,1.069.094l.192,0c.073,0,.146,0,.218,0s.145,0,.217-.008.144-.008.216-.014a8.46,8.46,0,0,0,7.784-7.784c.006-.072.01-.144.014-.216s.006-.145.008-.217,0-.145,0-.218Z" transform="translate(-1357.799 -2445.04)" fill="#fff"/>
  </g>
</svg>
